<?xml version="1.0" standalone="no"?>
<!DOCTYPE svg PUBLIC "-//W3C//DTD SVG 20010904//EN"
 "http://www.w3.org/TR/2001/REC-SVG-20010904/DTD/svg10.dtd">
<svg version="1.0" xmlns="http://www.w3.org/2000/svg"
 width="260.000000pt" height="260.000000pt" viewBox="0 0 260.000000 260.000000"
 preserveAspectRatio="xMidYMid meet">
<metadata>
Created by potrace 1.11, written by Peter Selinger 2001-2013
</metadata>
<g transform="translate(0.000000,260.000000) scale(0.100000,-0.100000)"
fill="#000000" stroke="none">
<path d="M441 2225 l0 -145 165 0 165 0 -3 -242 c-3 -222 -5 -246 -24 -283
-40 -79 -163 -109 -232 -58 -35 26 -72 90 -72 126 0 24 -4 27 -32 27 -61 1
-213 1 -246 1 l-33 -1 6 -51 c25 -198 164 -356 356 -405 110 -28 264 -7 359
49 106 62 193 191 216 322 4 22 8 212 8 423 l1 382 -317 0 -317 0 0 -145z"/>
<path d="M1653 2043 c-104 -161 -907 -1400 -934 -1441 -16 -24 -29 -45 -29
-48 0 -2 21 -4 48 -4 44 1 48 3 73 43 15 23 165 256 334 517 170 261 386 595
481 743 l173 267 -48 0 -48 0 -50 -77z"/>
<path d="M1770 1445 c-197 -45 -317 -175 -322 -348 -4 -206 118 -312 432 -376
152 -31 201 -50 215 -84 37 -89 -63 -158 -207 -143 -109 11 -171 60 -186 147
l-8 44 -133 0 c-154 0 -145 7 -130 -104 24 -171 141 -291 329 -335 62 -14 254
-16 305 -3 133 34 234 100 290 187 67 105 68 269 2 368 -51 78 -134 116 -365
168 -195 44 -248 74 -238 136 10 66 93 105 200 95 99 -9 152 -53 166 -137 l5
-35 135 0 135 0 -3 60 c-7 152 -132 298 -299 351 -71 22 -244 27 -323 9z"/>
</g>
</svg>
